<svg version="1.2" xmlns="http://www.w3.org/2000/svg" viewBox="0 0 6328 815" width="6328" height="815"><style></style><path  d="m0 400v400h67.5 67.5v-237.7-237.7l1.5 4.3c0.8 2.3 1.8 5.1 2.3 6.2 0.3 1.1 1.6 4.7 2.7 7.9 2.6 7.4 5.5 15.8 8 23 1.1 3.1 2.9 8.3 4 11.5 1.1 3.2 2.4 6.8 2.8 7.9 0.7 2.1 3.4 9.8 6.7 19.3 1.1 3.3 2.9 8.4 4 11.5 1.1 3.1 2.9 8.3 4 11.5 1.9 5.5 3.4 9.9 7.9 22.7 1 3 2.8 8.2 4 11.5 3 8.6 5.6 16.1 7.3 21.1 0.9 2.4 1.8 5 2 5.7 0.3 0.8 1 2.7 1.5 4.3 1.9 5.5 4.7 13.3 10.8 30.9 1.1 3.1 2.3 6.7 2.7 7.8 1.1 3.2 4.6 13.1 6.8 19.5 1.1 3.1 2.9 8.3 4 11.5 1.1 3.3 2.9 8.4 4 11.5 1.1 3.1 2.3 6.6 2.7 7.8 1.1 3.1 4.6 13.1 6.8 19.5 2.9 8.3 8.5 24.4 11.8 34q7.4 21.1 8.7 24.9c0.5 1.5 2.3 6.6 4 11.5 1.7 4.8 3.5 10 4 11.5 2.2 6.3 16.6 47.7 17.4 49.8 0.7 2 7.7 22.3 14.5 41.7 0.8 2.5 3.2 9.1 5.1 14.8l3.6 10.3h44.4 44.4l1.8-5.2c2.6-7.5 7.2-20.9 9.2-26.4 0.9-2.7 2.6-7.7 3.9-11.2 1.2-3.5 2.6-7.5 3.1-8.8 0.4-1.4 1.8-5.3 3-8.7 1.1-3.3 2.8-8.1 3.6-10.5 0.9-2.4 2.6-7.4 3.9-11.1 1.3-3.7 2.7-7.7 3.1-8.9 0.4-1.1 2.1-6.1 3.9-11.1 1.7-4.9 3.5-10.1 4-11.5 0.4-1.4 1.8-5.1 2.9-8.4 1.1-3.2 2.8-8.1 3.8-10.8 0.9-2.8 2.2-6.6 2.9-8.5 0.7-1.9 2-5.8 3-8.5 0.9-2.8 3.2-9.1 4.9-14.2 4-11.6 8.4-24.2 10.7-30.6 0.9-2.7 2.6-7.7 3.8-11 1.1-3.3 2.5-7.1 3-8.5 0.4-1.4 1.8-5.2 3-8.6 1.1-3.4 2.8-8.3 3.7-10.9 1-2.6 2.7-7.6 3.9-11.1 1.2-3.5 2.6-7.3 3-8.5 0.4-1.2 1.7-5 2.9-8.4 1.8-5.3 2.8-7.9 5.6-16 0.1-0.4 1.2-3.4 2.3-6.6 1.1-3.2 2.8-8.1 3.8-10.9 0.9-2.7 2.7-7.9 3.9-11.4 1.2-3.5 2.6-7.3 3-8.5 0.4-1.1 1.7-4.9 2.9-8.3 1.2-3.5 2.9-8.4 3.8-10.9 1.6-4.5 3.8-10.9 7.8-22.4 1.1-3.2 4.2-12.3 7-20.2 2.8-8 5.5-15.8 6-17.3 0.5-1.5 4.8-13.8 9.5-27.2 4.7-13.5 10.9-31.2 13.7-39.4l5.2-14.9 0.1 237.7v237.7h67.5 67.5v-400-400h-82.5l-82.6 0.1-1.8 5.4c-1 2.9-2.7 7.7-3.7 10.6-1 2.9-2.8 8.1-4 11.5-1.2 3.4-2.5 7.2-2.9 8.4-0.4 1.2-1.8 5-3 8.5-1.2 3.5-3 8.5-3.9 11.1-0.9 2.6-2.1 6.2-2.7 7.9-0.6 1.7-1.9 5.4-2.9 8.2-1 2.9-2.8 8-4 11.5-1.2 3.5-2.9 8.5-3.9 11.2-0.9 2.6-2.7 7.7-4 11.5-1.2 3.7-3 8.8-4 11.5-0.9 2.6-2.6 7.5-3.7 10.8-1.2 3.4-2.5 7.1-2.9 8.3-0.4 1.2-1.7 4.7-2.8 7.9-1.1 3.1-2.1 6-2.2 6.5-2.8 8-3.8 10.7-5.6 16-1.2 3.4-2.5 7.2-2.9 8.3-0.4 1.2-1.8 5-3 8.5-1.2 3.5-3 8.7-3.9 11.4-1 2.8-2.7 7.7-3.8 10.9-1.1 3.2-2.5 7.1-3 8.6-0.6 1.5-2.4 6.7-4 11.5-1.7 4.8-3.9 11-4.8 13.8-1 2.7-2.3 6.5-3 8.5-0.7 1.9-1.9 5.5-2.8 8.1-0.9 2.5-2.6 7.4-3.8 10.9-1.2 3.4-3 8.5-3.9 11.2-1 2.8-2.3 6.6-3 8.5-0.7 1.9-2 5.8-2.9 8.5-1 2.8-2.7 7.7-3.8 10.9-1.1 3.2-2.5 7-2.9 8.4-0.5 1.3-2.3 6.5-4 11.5-1.8 4.9-3.5 10-4 11.3-0.5 1.3-2.2 6.1-3.7 10.7-6.2 17.7-9 25.8-9.8 28.2-0.5 1.4-1.9 5.2-3 8.5-1.2 3.3-2.9 8.4-4 11.4-3 8.7-7.1 20.5-10.5 30.2-1.7 5.1-4 11.5-5 14.4-1 2.9-2.7 7.7-3.7 10.6-3.7 10.7-8 23-8.8 25.4-0.5 1.4-1.9 5.4-3.1 8.9-1.3 3.5-2.9 8.3-3.8 10.7-0.8 2.4-2.7 7.9-4.2 12.1-1.4 4.2-2.7 7.7-2.8 7.7-0.1 0-1.2-3-2.5-6.7-1.2-3.7-3.1-8.9-4-11.6-0.9-2.6-7.9-22.7-15.5-44.5-7.6-21.8-14.2-40.7-14.6-42-0.9-2.5-13.2-37.8-16.4-47-1.1-3.1-5-14.3-8.7-25-12.9-37.1-24.4-69.9-27.4-78.7-1.7-4.9-3.5-10-4-11.4-0.4-1.3-2.2-6.2-3.8-10.8-1.6-4.7-3.8-10.9-4.9-14-1-3.2-2.8-8.2-3.8-11.2-2.6-7.4-5.5-15.7-8-23-1.9-5.5-4.3-12.3-6.7-19-3.1-8.9-5.7-16.6-10.9-31.3-1.1-3.4-2.4-7.1-2.8-8.2-1.4-4-6.7-19.3-10.6-30.5-2.6-7.5-5.4-15.3-6.7-19.1-0.5-1.6-1.2-3.5-1.5-4.2-0.2-0.8-1.1-3.4-2-5.8-1.6-4.7-4-11.7-7.3-21.1-1.9-5.6-4.3-12.4-6.7-19-2-6.1-4.8-14.1-6.8-19.8-2.8-8-4.1-11.6-4.3-12.2-0.1-0.4-4.3-0.4-82.6-0.4h-82.5z"/><path  d="m791.3 268.3c0.1 288.3 0 268.7 1.2 281.4 2.6 28.8 9.8 58.1 20.7 84.3 4 9.5 9.8 21.7 14.6 30.3 22.5 40.5 53.9 74.8 92.3 100.7 15.7 10.6 32.7 19.8 50.7 27.4 24.5 10.3 52.4 17.6 78.8 20.6 13.2 1.5 20.5 1.9 34.5 1.9 12.5-0.1 18.9-0.4 29.1-1.4 43.1-4.4 83.5-17.7 120.5-39.8 41.2-24.5 76-59.2 100.8-100.4 22.4-37.2 36.3-79.5 40.4-122.6 1.3-14.1 1.2 8.3 1.3-282.8l0.1-267.9h-67.5-67.5l-0.1 266c-0.1 248.7-0.1 266.4-0.5 270.3-1.5 14-3.9 25.5-7.9 37.3-17.4 50.9-59.8 89.4-112.1 102-19.6 4.8-41 5.6-61.2 2.5-50.4-7.8-93.8-39.5-116.7-85.3-9.6-19.2-14.9-39.3-16.3-61.3-0.1-2.7-0.2-93.5-0.2-267.8v-263.7h-67.5-67.5z"/><path  d="m1477.5 400v400h225 225v-67.5-67.5h-157.5-157.5v-332.5-332.5h-67.5-67.5z"/><path fill-rule="evenodd" d="m2207.3 0h160.3l2.3 7.2c1.2 3.9 2.7 8.8 3.3 10.8 2.5 8.4 3.2 10.6 7.7 25 2.5 8.3 4.9 16.3 5.4 17.6 0.4 1.4 0.8 2.8 0.9 3.1 0.2 0.4 0.7 2 1.1 3.5 1 3.4 7.7 25.2 9.2 29.8 0.5 1.7 1.4 4.4 1.8 6 0.9 2.9 7.4 24.1 9.2 29.7 0.5 1.8 1.3 4.3 1.7 5.8 0.5 1.4 0.9 2.9 1 3.2 0.2 0.4 0.7 2 1.1 3.5 0.5 1.6 2.5 8.2 4.5 14.7 2 6.4 3.8 12.1 3.9 12.6 0.1 0.5 1.2 4 2.4 7.7 2.2 7.3 9.9 32 10.5 34.2 0.2 0.6 1.1 3.6 2 6.5 1.6 5.3 8.3 27 9 29.2 0.2 0.7 1.1 3.6 2 6.5 0.9 2.9 3.6 11.9 6.1 20 2.5 8.1 5 16.3 5.7 18.3 1 3.4 8 25.8 9.7 31.6 0.5 1.6 1.8 6 3 9.7 1.1 3.8 2.5 8.2 3 9.8 0.4 1.6 2 6.7 3.5 11.4 1.4 4.6 3 9.8 3.5 11.5 0.5 1.6 1.4 4.4 1.9 6.2 0.6 1.8 1.5 4.7 2 6.4 1.5 4.9 7.9 25.6 8.7 28.1 0.4 1.3 1.1 3.6 1.7 5.6 0.1 0.7 0.6 2.1 0.9 3.2 0.4 1.1 1.1 3.4 1.7 5.2 0.5 1.8 1.7 5.7 2.6 8.6 0.9 3 2.1 6.9 2.7 8.7 0.5 1.7 1.2 3.9 1.4 4.7 0.3 0.8 0.8 2.5 1.2 3.8 0.3 1.2 0.8 2.7 1 3.2 0.2 0.6 0.5 1.6 0.7 2.3 0.6 2.2 8.5 27.8 10.1 32.7 0.4 1.5 1.2 4 1.7 5.6 0.3 1.1 5.3 17.5 7.6 24.8 0.5 1.7 1.1 3.7 1.3 4.4 0.7 2.3 2.4 7.7 6 19.5 2 6.4 4.1 13.1 4.6 14.7 0.5 1.7 1.3 4.5 1.9 6.3 0.6 1.7 1.4 4.6 1.9 6.3 0.6 1.8 2.6 8.4 4.6 14.9 2 6.5 4.1 13.1 4.6 14.8 0.5 1.6 1.3 4.4 1.8 6.1 0.6 1.7 2.6 8.4 4.6 14.9 2 6.4 4.1 13.1 4.6 14.7 0.5 1.7 1.3 4.5 1.9 6.3 0.6 1.7 1.4 4.6 1.9 6.3 0.6 1.8 2.6 8.4 4.6 14.9 3.5 11.1 4.2 13.4 6.4 20.9 1.6 5 7.9 25.7 8.8 28.4 0.2 0.8 0.7 2.5 1.1 3.7 0.4 1.3 0.9 2.7 1 3.3 0.2 0.5 0.5 1.5 0.8 2.2 0.5 1.9 4.3 14.4 8.6 28.1 0.5 1.8 1.3 4.3 1.7 5.8 0.5 1.5 0.9 2.9 1 3.2 0.2 0.4 0.7 2 1.2 3.5 1 3.4 9.3 30.7 10.5 34.4 0.2 0.7 0.6 2 0.9 2.8l0.4 1.6h-141.2l-0.4-1.2c-0.1-0.7-4.9-15.8-10.4-33.8-5.5-18-10.2-33.3-10.5-34.1-0.2-0.9-3.2-10.4-6.5-21.2-3.3-10.7-6.2-20.2-6.5-21.1-0.2-0.8-1.8-5.9-3.5-11.4-1.6-5.4-3.2-10.3-3.4-11l-0.3-1.2h-287l-0.9 2.9c-1.6 5.4-1.8 6-2.6 8.5-0.4 1.3-2.9 9.5-5.5 18-2.6 8.5-5.1 16.6-5.5 18-0.5 1.3-0.9 2.7-1 3.1-0.1 0.4-0.5 1.7-1 3.1-0.4 1.4-2.7 8.8-5 16.4-2.4 7.6-4.6 15-5 16.4-0.5 1.3-0.9 2.7-1 3.1-0.1 0.4-0.5 1.7-1 3.1-0.4 1.4-2.7 8.8-5 16.4-2.4 7.6-4.6 15-5 16.4-0.5 1.3-0.9 2.7-1 3.1-0.1 0.4-0.6 1.8-1 3.2-0.4 1.5-0.8 2.8-0.9 3-0.1 0.2-14.4 0.3-70.8 0.3-57.3 0-70.6 0-70.5-0.3 0.1-0.2 1-3.3 2.2-7 1.1-3.6 2.3-7.4 2.6-8.5 0.3-1 0.9-2.8 1.3-4.1 0.3-1.2 0.8-2.7 1-3.2 0.1-0.6 0.6-2 1-3.3 0.3-1.2 0.8-2.7 1-3.2 0.1-0.6 0.6-2.2 1-3.5 1.6-5 6.1-19.8 6.7-21.7 0.3-1 0.9-2.8 1.3-4.1 0.3-1.2 0.8-2.7 1-3.2 0.1-0.6 0.6-2 1-3.3 0.3-1.2 0.8-2.7 1-3.2 0.1-0.6 0.6-2.2 1-3.5 0.5-1.4 2-6.4 3.5-11.2 1.4-4.7 3-9.7 3.4-11.1 0.4-1.4 0.9-2.9 1.1-3.5 0.2-0.5 0.6-1.9 0.9-3.1 0.4-1.2 2.8-9.1 5.4-17.6 2.7-8.5 5-16.2 5.3-17 0.2-0.9 0.8-2.7 1.2-4 0.4-1.4 2.9-9.5 5.5-18 2.7-8.5 5.2-16.7 5.6-18 0.4-1.4 0.8-2.8 0.9-3.2 0.2-0.3 0.6-1.7 1-3.1 0.4-1.4 2.7-8.7 5-16.4 2.4-7.6 4.7-15 5.1-16.3 0.4-1.4 0.8-2.8 0.9-3.2 0.2-0.3 0.6-1.7 1-3.1 0.4-1.4 2.7-8.7 5-16.4 2.4-7.6 4.7-15 5.1-16.3 0.4-1.4 0.8-2.8 0.9-3.2 0.2-0.3 0.6-1.7 1-3.1 0.4-1.4 2.7-8.7 5-16.4 2.4-7.6 4.7-15 5.1-16.3 0.4-1.4 0.8-2.8 0.9-3.2 0.2-0.3 0.6-1.7 1-3.1 0.4-1.4 2.3-7.3 4-13.1 1.8-5.9 3.6-11.6 3.9-12.8 0.4-1.1 0.9-2.5 1-3.1 0.2-0.5 0.7-2 1-3.2 0.4-1.3 0.9-2.7 1-3.3 0.2-0.5 0.7-2.1 1.1-3.5 1.3-4.3 7.3-23.7 7.8-25.2 0.2-0.9 0.7-2.6 1.1-3.8 0.4-1.2 0.9-2.7 1-3.2 0.2-0.6 0.6-2.1 1-3.3 0.4-1.2 0.8-2.7 1-3.2 0.2-0.6 0.7-2.2 1.1-3.5 0.4-1.4 2-6.6 3.5-11.5 1.6-5 3.1-10 3.4-11.2 0.4-1.1 0.9-2.5 1-3.1 0.2-0.5 0.7-2 1-3.2 0.4-1.3 0.9-2.7 1-3.3 0.2-0.5 0.6-2 1-3.2 0.4-1.3 1-3.1 1.3-4.2 0.8-2.7 5.7-18.6 6.6-21.6 0.5-1.4 0.9-2.8 1-3.1 0.1-0.4 0.5-1.8 1-3.1 0.4-1.4 2.9-9.5 5.5-18 6-19.3 5.5-18.1 6.5-21 0.8-2.9 7.8-25.5 9.2-30.2 0.6-1.7 1.4-4.3 1.8-5.7 0.4-1.5 0.9-2.9 1-3.3 0.1-0.3 0.5-1.7 1-3.1 0.4-1.4 2.6-8.7 5-16.4 2.3-7.6 4.6-15 5-16.3 0.5-1.4 0.9-2.8 1-3.2 0.1-0.3 0.5-1.7 1-3.1 0.4-1.4 2.6-8.7 5-16.4 2.3-7.6 4.6-15 5-16.3 0.5-1.4 0.9-2.8 1-3.2 0.1-0.3 0.5-1.7 1-3.1 0.4-1.4 2-6.5 3.5-11.5 1.5-4.9 3-9.9 3.4-11.1 0.3-1.2 0.8-2.6 1-3.1 0.2-0.6 0.6-2.1 1-3.3 0.3-1.2 0.8-2.7 1-3.2 0.1-0.6 0.6-2.1 1-3.3 0.3-1.2 0.9-3.1 1.2-4.1 0.7-2.2 6.9-22.1 7.8-25.3 0.4-1.1 0.8-2.5 1-3.1 0.1-0.5 0.6-2 1-3.2 0.3-1.3 0.8-2.7 1-3.3 0.1-0.5 0.6-2.1 1.1-3.5 0.4-1.4 2.2-7.3 4-13.1 1.8-5.9 3.5-11.6 3.9-12.8 0.3-1.1 0.8-2.5 1-3.1 0.2-0.5 0.6-2 1-3.2 0.3-1.3 0.9-3.1 1.2-4.2 1.1-3.4 7.9-25.5 8.7-28.1 0.4-1.4 0.8-2.8 0.9-3.1 0.2-0.4 0.6-1.8 1-3.1 0.4-1.4 2.7-8.8 5-16.4 2.4-7.6 4.7-15 5.1-16.4 0.4-1.4 0.8-2.8 0.9-3.1 0.2-0.4 0.6-1.8 1-3.3 0.5-1.4 1-3.2 1.3-3.9zm80.1 199c0 0-0.7 1.8-1.3 4-0.7 2.3-1.5 4.9-1.8 5.9-0.3 0.9-0.9 2.7-1.3 4-1.1 3.6-1.6 5.4-2 6.5-0.1 0.5-0.6 1.9-0.9 3.1-0.4 1.2-1.9 6.2-3.4 11.1-1.6 5-3.2 10.1-3.6 11.5-0.4 1.4-0.9 3-1.1 3.5-0.2 0.6-0.6 2-1 3.3-0.3 1.2-0.8 2.7-1 3.2-0.1 0.6-0.6 2-1 3.3-0.3 1.2-0.8 2.9-1.1 3.7-0.5 1.6-6.5 21-7.8 25.3-0.4 1.3-0.9 2.9-1.1 3.5-0.1 0.5-0.6 2-1 3.2-0.3 1.2-0.8 2.7-1 3.3-0.1 0.5-0.6 1.9-0.9 3.1-0.4 1.2-2.1 6.9-3.9 12.7-1.8 5.9-3.7 11.8-4.1 13.2-0.4 1.3-0.8 2.7-0.9 3.1-0.2 0.3-0.6 1.7-1 3.1-0.4 1.4-2.7 8.8-5 16.4-2.4 7.6-4.7 15-5.1 16.4-0.4 1.3-0.8 2.7-0.9 3.1-0.2 0.3-0.6 1.7-1 3.1-0.4 1.4-2.7 8.8-5 16.4-2.4 7.6-4.7 15-5.1 16.4-0.4 1.3-0.8 2.7-0.9 3.1-0.2 0.3-0.6 1.7-1 3.1-0.4 1.4-2.7 8.8-5 16.4-2.4 7.6-4.6 15-5.1 16.4-0.4 1.3-0.8 2.7-0.9 3.1-0.2 0.3-0.6 1.7-1 3.1-0.4 1.4-2.9 9.5-5.5 18-2.7 8.5-5.2 16.6-5.6 18-0.4 1.4-0.9 3.2-1.2 4-0.3 0.8-2.4 7.8-4.7 15.4-2.4 7.6-4.6 14.8-4.9 16-0.8 2.4-1.8 5.6-2.3 7.2-0.2 0.6-0.3 1.2-0.3 1.4 0 0.4 12.5 0.4 101.8 0.4h101.9l-0.2-0.7c-0.3-0.9-7.4-23.9-9-28.9-0.6-2.2-10.3-33.7-10.8-35.3-0.6-1.9-10.4-33.9-11.7-38.1-2.4-7.7-3.1-10-7.5-24.1-2.5-8.3-5-16.4-5.5-18.2-2.3-7.5-3-9.7-6.5-20.8-2-6.5-3.8-12.4-4-13-0.2-0.7-0.8-2.7-1.3-4.4-1.8-5.9-8-26.1-8.4-27.4-0.2-0.7-0.5-1.7-0.7-2.2-0.2-0.6-0.6-2.1-1-3.3-0.4-1.2-0.9-2.9-1.1-3.7-0.5-1.6-0.9-2.8-5.2-16.7-3.2-10.5-4.5-14.6-5.1-16.6-0.2-0.8-0.6-2.1-0.8-2.7-1.3-4-9.7-31.5-10.1-32.8-0.2-0.7-0.5-1.7-0.7-2.2-0.2-0.6-0.6-2.1-1-3.3-0.4-1.2-0.9-2.9-1.1-3.7-0.5-1.6-0.9-2.8-5.2-16.7-1.4-4.7-3.1-10.1-3.6-11.8-0.6-1.8-1.1-3.5-1.2-3.9 0-0.3-0.2-0.5-0.3-0.5z"/><path  d="m2487.9 0.3c0 0.2 2.3 7.8 5 17.1 5.1 17.7 7.2 24.6 30 102.8 3 10.1 7.4 25.2 9.8 33.4 2.4 8.3 6.7 23.1 9.6 32.9 2.9 9.8 7.3 25 9.8 33.8 2.6 8.7 7.4 25.1 10.7 36.3 3.3 11.3 7.7 26.5 9.9 33.8 2.1 7.2 6.5 22.2 9.7 33.2 3.2 11 7.6 26.2 9.8 33.7 8.1 27.5 15.9 54.4 19.2 65.5 1.8 6.2 5.1 17.5 7.3 25.1 2.2 7.5 5.5 18.9 7.4 25.4 1.9 6.3 5 17 7 23.6 1.9 6.6 6.4 22.1 10.1 34.6 7.4 25.5 9.3 32 18.7 64.1 3.7 12.5 7.2 24.6 7.8 26.8 0.7 2.2 2.2 7.4 3.4 11.5 1.2 4.1 5.3 18.1 9.1 31 3.8 12.9 8.2 28.1 9.9 33.7 1.6 5.7 6.1 21.3 10.1 34.7 9.5 32.4 11.7 39.8 15.9 54.3l3.5 12.3h81.1 81.1l2.7-9.1c3.2-10.8 9.4-32.1 28.6-97.9 7.8-26.7 15.3-52.1 16.6-56.5 1.3-4.4 3.9-13.3 5.7-19.6 9.7-33.2 24.5-83.9 35.5-121.3 2.5-8.7 5.6-19.2 6.8-23.2 2.3-8 8.2-28.4 25.3-86.8 6-20.3 11.7-40 12.8-43.7 3.9-13.5 36.7-125.5 38.9-133 1.2-4.3 3.5-12 5-17.2 3.4-11.7 24.8-85 29.5-100.7 1.8-6.4 4.3-14.6 5.4-18.4 3.7-12.8 10.8-37.3 15.9-54.6 2.7-9.5 5.1-17.4 5.1-17.6 0.1-0.2-14-0.3-70.2-0.3h-70.3l-0.7 2.3c-0.3 1.3-2.3 8-4.4 15.1-10.9 37.1-27.3 93.2-33.1 113.4-1.8 6.2-5.1 17.4-13.6 46.3-4.6 15.8-16.9 57.8-21.4 73.3-3.2 10.7-7.4 25.4-28.3 96.6-16.6 56.9-24.6 84.4-29.2 99.9-4.5 15.3-15 51.2-19.9 68.1-3.6 12.4-9.5 32.6-19.8 67.6-2 7-3.8 12.9-3.8 13.2-0.2 0.3-3.7-11.3-9.9-32.8-0.9-3.2-5-17.3-9.1-31.2-4.1-14-8.3-28.5-9.4-32.3-1.1-3.8-2.8-9.3-3.6-12.2-1.6-5.5-14.7-50.1-17.2-58.9-0.8-2.6-2.4-8.2-3.6-12.4-1.3-4.2-5.4-18.1-9.1-30.9-7.3-24.9-9-30.8-19.6-67-3.7-12.9-8.2-28.3-10-34.2-1.7-6-5.4-18.4-8.1-27.8-2.7-9.3-5.8-20-6.9-23.6-1.1-3.6-3.2-10.9-4.7-16-12.2-41.7-16.6-57-18.3-62.7-1.1-3.7-2.7-9.3-3.7-12.4-2.3-8.1-10.7-36.9-16.3-56-1.2-4.1-2.9-10.1-3.9-13.3-1.9-6.3-11.9-40.4-14.8-50.7-1.1-3.6-2.7-9.1-3.6-12.1-0.9-3.1-1.9-6.5-2.1-7.5l-0.6-1.8h-70.3c-56.1 0-70.3 0.1-70.2 0.3z"/><path fill-rule="evenodd" d="m3237.9 0h160.3l2.2 7.2c1.2 3.9 2.7 8.8 3.3 10.8 2.5 8.4 3.2 10.6 7.7 25 2.5 8.3 5 16.3 5.4 17.6 0.4 1.4 0.8 2.8 0.9 3.1 0.2 0.4 0.7 2 1.2 3.5 1 3.4 7.7 25.2 9.1 29.8 0.5 1.7 1.4 4.4 1.9 6 0.8 2.9 7.3 24.1 9.1 29.7 0.5 1.8 1.3 4.3 1.7 5.8 0.5 1.4 0.9 2.9 1 3.2 0.2 0.4 0.7 2 1.2 3.5 0.4 1.6 2.5 8.2 4.4 14.7 2 6.4 3.8 12.1 3.9 12.6 0.2 0.5 1.2 4 2.4 7.7 2.2 7.3 9.9 32 10.5 34.2 0.2 0.6 1.1 3.6 2 6.5 1.6 5.3 8.3 27 9 29.2 0.2 0.7 1.1 3.6 2 6.5 0.9 2.9 3.6 11.9 6.1 20 2.5 8.1 5 16.3 5.7 18.3 1 3.4 8 25.8 9.7 31.6 0.5 1.6 1.8 6 3 9.7 1.1 3.8 2.5 8.2 3 9.8 0.5 1.6 2 6.7 3.5 11.4 1.4 4.6 3 9.8 3.5 11.5 0.5 1.6 1.4 4.4 2 6.2 0.5 1.8 1.4 4.7 1.9 6.4 1.5 4.9 7.9 25.6 8.7 28.1 0.4 1.3 1.1 3.6 1.7 5.6 0.2 0.7 0.6 2.1 0.9 3.2 0.4 1.1 1.1 3.4 1.7 5.2 0.5 1.8 1.7 5.7 2.6 8.6 0.9 3 2.1 6.9 2.7 8.7 0.5 1.7 1.2 3.9 1.4 4.7 0.3 0.8 0.8 2.5 1.2 3.8 0.3 1.2 0.8 2.7 1 3.2 0.2 0.6 0.5 1.6 0.7 2.3 0.6 2.2 8.5 27.8 10.1 32.7 0.4 1.5 1.2 4 1.7 5.6 0.3 1.1 5.3 17.5 7.6 24.8 0.5 1.7 1.1 3.7 1.3 4.4 0.8 2.3 2.4 7.7 6 19.5 2 6.4 4.1 13.1 4.6 14.7 0.5 1.7 1.3 4.5 1.9 6.3 0.6 1.7 1.4 4.6 1.9 6.3 0.6 1.8 2.6 8.4 4.6 14.9 2 6.5 4.1 13.1 4.6 14.8 0.5 1.6 1.3 4.4 1.8 6.1 0.6 1.7 2.6 8.4 4.6 14.9 2 6.4 4.1 13.1 4.6 14.7 0.5 1.7 1.3 4.5 1.9 6.3 0.6 1.7 1.4 4.6 1.9 6.3 0.6 1.8 2.6 8.4 4.6 14.9 3.5 11.1 4.2 13.4 6.4 20.9 1.6 5 7.9 25.7 8.8 28.4 0.2 0.8 0.7 2.5 1.1 3.7 0.4 1.3 0.9 2.7 1 3.3 0.2 0.5 0.5 1.5 0.8 2.2 0.5 1.9 4.3 14.4 8.6 28.1 0.5 1.8 1.3 4.3 1.7 5.8 0.5 1.5 0.9 2.9 1 3.2 0.2 0.4 0.7 2 1.2 3.5 1 3.4 9.3 30.7 10.5 34.4 0.2 0.7 0.6 2 0.9 2.8l0.4 1.6h-141.1l-0.5-1.2c-0.1-0.7-4.9-15.8-10.4-33.8-5.5-18-10.2-33.3-10.5-34.1-0.2-0.9-3.1-10.4-6.5-21.2-3.3-10.7-6.2-20.2-6.5-21.1-0.2-0.8-1.8-5.9-3.5-11.4-1.6-5.4-3.1-10.3-3.3-11l-0.4-1.2h-287l-0.9 2.9c-1.6 5.4-1.8 6-2.5 8.5-0.5 1.3-3 9.5-5.6 18-2.6 8.5-5.1 16.6-5.5 18-0.4 1.3-0.9 2.7-1 3.1-0.1 0.4-0.5 1.7-1 3.1-0.4 1.4-2.6 8.8-5 16.4-2.4 7.6-4.6 15-5 16.4-0.4 1.3-0.9 2.7-1 3.1-0.1 0.4-0.5 1.7-1 3.1-0.4 1.4-2.6 8.8-5 16.4-2.4 7.6-4.6 15-5 16.4-0.4 1.3-0.9 2.7-1 3.1-0.1 0.4-0.6 1.8-1 3.2-0.4 1.5-0.8 2.8-0.9 3-0.1 0.2-14.4 0.3-70.7 0.3-57.4 0-70.7 0-70.6-0.3 0.1-0.2 1.1-3.3 2.2-7 1.1-3.6 2.3-7.4 2.6-8.5 0.3-1 0.9-2.8 1.3-4.1 0.3-1.2 0.8-2.7 1-3.2 0.2-0.6 0.6-2 1-3.3 0.3-1.2 0.8-2.7 1-3.2 0.2-0.6 0.7-2.2 1.1-3.5 1.5-5 6-19.8 6.6-21.7 0.3-1 0.9-2.8 1.3-4.1 0.3-1.2 0.8-2.7 1-3.2 0.2-0.6 0.6-2 1-3.3 0.3-1.2 0.8-2.7 1-3.2 0.2-0.6 0.7-2.2 1.1-3.5 0.4-1.4 1.9-6.4 3.4-11.2 1.4-4.7 3-9.7 3.4-11.1 0.4-1.4 0.9-2.9 1.1-3.5 0.2-0.5 0.6-1.9 1-3.1 0.3-1.2 2.7-9.1 5.3-17.6 2.7-8.5 5-16.2 5.3-17 0.2-0.9 0.8-2.7 1.2-4 0.4-1.4 2.9-9.5 5.5-18 2.7-8.5 5.2-16.7 5.6-18 0.4-1.4 0.8-2.8 0.9-3.2 0.2-0.3 0.6-1.7 1-3.1 0.4-1.4 2.7-8.7 5-16.4 2.4-7.6 4.7-15 5.1-16.3 0.4-1.4 0.8-2.8 0.9-3.2 0.2-0.3 0.6-1.7 1-3.1 0.4-1.4 2.7-8.7 5-16.4 2.4-7.6 4.7-15 5.1-16.3 0.4-1.4 0.8-2.8 0.9-3.2 0.2-0.3 0.6-1.7 1-3.1 0.4-1.4 2.7-8.7 5-16.4 2.4-7.6 4.7-15 5.1-16.3 0.4-1.4 0.8-2.8 0.9-3.2 0.2-0.3 0.6-1.7 1-3.1 0.4-1.4 2.3-7.3 4-13.1 1.9-5.9 3.6-11.6 3.9-12.8 0.4-1.1 0.9-2.5 1-3.1 0.2-0.5 0.7-2 1-3.2 0.4-1.3 0.9-2.7 1-3.3 0.2-0.5 0.7-2.1 1.1-3.5 1.3-4.3 7.3-23.7 7.8-25.2 0.2-0.9 0.7-2.6 1.1-3.8 0.4-1.2 0.9-2.7 1-3.2 0.2-0.6 0.6-2.1 1-3.3 0.4-1.2 0.8-2.7 1-3.2 0.2-0.6 0.7-2.2 1.1-3.5 0.4-1.4 2-6.6 3.5-11.5 1.6-5 3.1-10 3.4-11.2 0.4-1.1 0.9-2.5 1-3.1 0.2-0.5 0.7-2 1-3.2 0.4-1.3 0.9-2.7 1-3.3 0.2-0.5 0.6-2 1-3.2 0.4-1.3 1-3.1 1.3-4.2 0.8-2.7 5.7-18.6 6.6-21.6 0.5-1.4 0.9-2.8 1-3.1 0.1-0.4 0.6-1.8 1-3.1 0.4-1.4 2.9-9.5 5.5-18 6-19.3 5.6-18.1 6.5-21 0.9-2.9 7.8-25.5 9.2-30.2 0.6-1.7 1.4-4.3 1.8-5.7 0.4-1.5 0.9-2.9 1-3.3 0.1-0.3 0.6-1.7 1-3.1 0.4-1.4 2.6-8.7 5-16.4 2.4-7.6 4.6-15 5-16.3 0.5-1.4 0.9-2.8 1-3.2 0.1-0.3 0.6-1.7 1-3.1 0.4-1.4 2.6-8.7 5-16.4 2.4-7.6 4.6-15 5-16.3 0.5-1.4 0.9-2.8 1-3.2 0.1-0.3 0.6-1.7 1-3.1 0.4-1.4 2-6.5 3.5-11.5 1.5-4.9 3.1-9.9 3.4-11.1 0.3-1.2 0.8-2.6 1-3.1 0.2-0.6 0.6-2.1 1-3.3 0.3-1.2 0.8-2.7 1-3.2 0.2-0.6 0.6-2.1 1-3.3 0.3-1.2 0.9-3.1 1.2-4.1 0.7-2.2 6.9-22.1 7.8-25.3 0.4-1.1 0.8-2.5 1-3.1 0.2-0.5 0.6-2 1-3.2 0.3-1.3 0.8-2.7 1-3.3 0.2-0.5 0.7-2.1 1.1-3.5 0.4-1.4 2.2-7.3 4-13.1 1.8-5.9 3.6-11.6 3.9-12.8 0.3-1.1 0.8-2.5 1-3.1 0.2-0.5 0.6-2 1-3.2 0.3-1.3 0.9-3.1 1.2-4.2 1.1-3.4 7.9-25.5 8.7-28.1 0.4-1.4 0.8-2.8 0.9-3.1 0.2-0.4 0.6-1.8 1-3.1 0.4-1.4 2.7-8.8 5-16.4 2.4-7.6 4.7-15 5.1-16.4 0.4-1.4 0.8-2.8 0.9-3.1 0.2-0.4 0.6-1.8 1-3.3 0.5-1.4 1-3.2 1.3-3.9zm80.1 199c0 0-0.7 1.8-1.4 4-0.6 2.3-1.4 4.9-1.7 5.9-0.4 0.9-0.9 2.7-1.3 4-1.1 3.6-1.6 5.4-2 6.5-0.1 0.5-0.6 1.9-1 3.1-0.3 1.2-1.8 6.2-3.4 11.1-1.5 5-3.1 10.1-3.5 11.5-0.4 1.4-0.9 3-1.1 3.5-0.2 0.6-0.6 2-1 3.3-0.4 1.2-0.8 2.7-1 3.2-0.1 0.6-0.6 2-1 3.3-0.4 1.2-0.9 2.9-1.1 3.7-0.5 1.6-6.5 21-7.8 25.3-0.4 1.3-0.9 2.9-1.1 3.5-0.1 0.5-0.6 2-1 3.2-0.3 1.2-0.8 2.7-1 3.3-0.1 0.5-0.6 1.9-1 3.1-0.3 1.2-2.1 6.9-3.9 12.7-1.7 5.9-3.6 11.8-4 13.2-0.4 1.3-0.8 2.7-1 3.1-0.1 0.3-0.5 1.7-0.9 3.1-0.4 1.4-2.7 8.8-5.1 16.4-2.3 7.6-4.6 15-5 16.4-0.4 1.3-0.8 2.7-1 3.1-0.1 0.3-0.5 1.7-0.9 3.1-0.4 1.4-2.7 8.8-5.1 16.4-2.3 7.6-4.6 15-5 16.4-0.4 1.3-0.8 2.7-1 3.1-0.1 0.3-0.5 1.7-0.9 3.1-0.4 1.4-2.7 8.8-5.1 16.4-2.3 7.6-4.6 15-5 16.4-0.4 1.3-0.8 2.7-1 3.1-0.1 0.3-0.5 1.7-0.9 3.1-0.4 1.4-2.9 9.5-5.6 18-2.6 8.5-5.1 16.6-5.5 18-0.4 1.4-1 3.2-1.2 4-0.3 0.8-2.4 7.8-4.8 15.4-2.3 7.6-4.5 14.8-4.8 16-0.8 2.4-1.8 5.6-2.3 7.2-0.2 0.6-0.4 1.2-0.4 1.4 0 0.4 12.6 0.4 101.9 0.4h101.9l-0.3-0.7c-0.2-0.9-7.3-23.9-8.9-28.9-0.6-2.2-10.3-33.7-10.8-35.3-0.6-1.9-10.5-33.9-11.8-38.1-2.3-7.7-3-10-7.4-24.1-2.5-8.3-5-16.4-5.6-18.2-2.2-7.5-2.9-9.7-6.4-20.8-2-6.5-3.8-12.4-4-13-0.2-0.7-0.8-2.7-1.3-4.4-1.9-5.9-8-26.1-8.4-27.4-0.2-0.7-0.5-1.7-0.7-2.2-0.2-0.6-0.7-2.1-1-3.3-0.4-1.2-0.9-2.9-1.2-3.7-0.5-1.6-0.8-2.8-5.1-16.7-3.2-10.5-4.5-14.6-5.1-16.6-0.2-0.8-0.6-2.1-0.8-2.7-1.3-4-9.7-31.5-10.1-32.8-0.2-0.7-0.5-1.7-0.7-2.2-0.2-0.6-0.7-2.1-1-3.3-0.4-1.2-0.9-2.9-1.2-3.7-0.5-1.6-0.8-2.8-5.1-16.7-1.5-4.7-3.1-10.1-3.6-11.8-0.6-1.8-1.1-3.5-1.2-3.9-0.1-0.3-0.2-0.5-0.3-0.5z"/><path fill-rule="evenodd" d="m3689.3 0l144 0.1c107.4 0 145 0.1 147.6 0.3 9.2 0.8 16 1.5 21.6 2.4 2.7 0.3 10.7 1.6 12 2 0.6 0.1 2.5 0.5 4.2 0.8 1.8 0.4 3.6 0.8 4.2 0.9 18.8 4.4 29.7 8.1 49.1 16.3 2.8 1.1 15.9 7.6 19.9 9.8 17.4 9.6 34.8 22 50 35.6 4.9 4.4 15.3 14.9 19.6 19.7 24.2 27.1 41.5 56.6 53.4 90.8 7.7 22.1 12 43.9 13.9 69.9 0.4 5.5 0.4 27.4 0 32.8-2.2 30.1-7.8 55.1-17.9 80.9-8.7 21.9-20.4 42.9-34.2 61.3-8.2 10.9-15 18.7-25.1 28.8-10.3 10.3-17.8 16.8-29.2 25.3-7.7 5.7-14.5 10.3-22.5 15.1-2.5 1.5-4.7 2.8-4.8 2.9-0.2 0.1 1.3 3.2 5.2 10.3 3 5.6 6.1 11.2 6.7 12.5 0.7 1.2 2.2 4.1 3.5 6.3 1.2 2.2 2.7 5 3.2 6.1 0.6 1.1 3 5.3 5.2 9.5 2.2 4.1 6.7 12.3 9.8 18.2 3.2 5.9 6.2 11.4 6.7 12.3 1.1 2.1 10.7 19.8 11.9 22.1 0.6 1 1.3 2.3 1.6 2.9 0.3 0.5 2.4 4.4 4.7 8.6 4.4 8.3 8.7 16.2 10 18.6 0.5 0.9 3.1 5.8 5.9 10.9 2.8 5.1 5.4 10 5.8 10.7 0.4 0.8 3 5.5 5.7 10.5 7.9 14.7 20 37 21.1 39 0.5 1.1 1.3 2.4 1.6 3 0.3 0.7 1.7 3.2 3 5.7 6 10.9 7.6 14 10 18.5 1.5 2.6 3 5.4 3.4 6.2 0.5 0.9 1.6 2.9 2.5 4.6 1 1.8 2.2 4 2.7 5 0.6 1.1 1.3 2.5 1.7 3.2 0.8 1.4 4.4 8 8.2 15.1 5.6 10.4 11.9 22 15.6 28.9 0.9 1.6 2.2 4 2.9 5.2 0.6 1.3 2.1 4.1 3.3 6.3l2.2 4-76.6 0.1c-42.2 0-76.8-0.1-76.9-0.2 0-0.1-2.8-5.1-6.1-11.2-5-9.3-12-22.2-15-27.7-0.4-0.9-2-3.7-3.4-6.3-3.4-6.4-3.8-7.1-6.5-12.1-1.3-2.4-3.9-7.2-5.7-10.6-5.6-10.3-11.8-21.7-12.6-23.3-0.5-0.8-1.6-2.9-2.5-4.6-0.9-1.7-2.1-3.8-2.5-4.6-2.1-3.9-6.2-11.4-8.4-15.5-2.4-4.5-6.4-11.9-8-14.9-0.5-0.9-2.1-3.8-3.5-6.4-1.4-2.6-2.9-5.4-3.4-6.2-0.4-0.9-1.5-2.9-2.5-4.7-0.9-1.7-2-3.7-2.5-4.6-1.3-2.4-5.7-10.6-8.4-15.5-4.8-9-7.4-13.7-8.1-15.1-0.9-1.6-3.8-7-5-9.1-0.7-1.4-5-9.3-6.7-12.5-1.5-2.8-5.9-10.9-8.4-15.5-2.1-3.9-5.3-9.9-8.1-15-2.3-4.3-5.8-10.8-6.7-12.4-0.6-1-1.2-2.2-1.5-2.6-0.2-0.4-0.9-1.8-1.6-3-0.6-1.3-1.8-3.4-2.6-4.9-0.8-1.5-1.9-3.5-2.5-4.6-0.6-1.1-1.7-3.1-2.4-4.5l-1.4-2.4h-135.5v270h-135zm206.9 135h-71.9v260l74.9-0.1c54.9-0.1 75.5-0.2 77.3-0.4 17.4-2 30.4-5.7 44.5-12.5 13.7-6.6 24.4-14.3 35.2-25.1 5.2-5.2 8.6-9.1 12.4-14.2 12.5-16.8 21-36.8 24.1-57.2 1.3-8 1.5-11.3 1.5-20.5 0-9.2-0.2-12.5-1.5-20.6-3.2-20.6-11.8-40.9-24.6-57.8-7-9.2-16.8-19-25.9-25.7-20.9-15.5-44.2-24-70.1-25.7-2.7-0.1-29.5-0.2-75.9-0.2z"/><path  d="m4310.5 400v400h67.5 67.5v-237.7-237.7l1.5 4.3c0.9 2.3 1.9 5.1 2.3 6.2 0.3 1.1 1.6 4.7 2.7 7.9 2.6 7.4 5.5 15.8 8 23 1.1 3.1 2.9 8.3 4 11.5 1.1 3.2 2.4 6.8 2.8 7.9 0.7 2.1 3.4 9.8 6.7 19.3 1.1 3.3 2.9 8.4 4 11.5 1.1 3.1 2.9 8.3 4 11.5 1.9 5.5 3.4 9.9 7.9 22.7 1 3 2.8 8.2 4 11.5 3 8.6 5.6 16.1 7.3 21.1 0.9 2.4 1.8 5 2 5.7 0.3 0.8 1 2.7 1.5 4.3 1.9 5.5 4.7 13.3 10.7 30.9 1.2 3.1 2.4 6.7 2.8 7.8 1.1 3.2 4.6 13.1 6.8 19.5 1.1 3.1 2.9 8.3 4 11.5 1.1 3.3 2.9 8.4 4 11.5 1.1 3.1 2.3 6.6 2.7 7.8 1.1 3.1 4.6 13.1 6.8 19.5 2.9 8.3 8.5 24.4 11.8 34q7.4 21.1 8.7 24.9c0.5 1.5 2.3 6.6 4 11.5 1.7 4.8 3.5 10 4 11.5 2.2 6.3 16.6 47.7 17.4 49.8 0.7 2 7.7 22.3 14.5 41.7 0.8 2.5 3.2 9.1 5.1 14.8l3.6 10.3h44.4 44.4l1.8-5.2c2.6-7.5 7.2-20.9 9.2-26.4 0.9-2.7 2.6-7.7 3.9-11.2 1.1-3.5 2.6-7.5 3.1-8.8 0.4-1.4 1.8-5.3 3-8.7 1.1-3.3 2.8-8.1 3.6-10.5 0.9-2.4 2.6-7.4 3.9-11.1 1.3-3.7 2.7-7.7 3.1-8.9 0.4-1.1 2.1-6.1 3.9-11.1 1.7-4.9 3.5-10.1 4-11.5 0.4-1.4 1.8-5.1 2.9-8.4 1.1-3.2 2.8-8.1 3.8-10.8 0.9-2.8 2.2-6.6 2.9-8.5 0.7-1.9 2-5.8 2.9-8.5 1-2.8 3.3-9.1 5-14.2 4-11.6 8.4-24.2 10.7-30.6 0.9-2.7 2.6-7.7 3.8-11 1.1-3.3 2.5-7.1 3-8.5 0.4-1.4 1.8-5.2 3-8.6 1.1-3.4 2.8-8.3 3.7-10.9 1-2.6 2.7-7.6 3.9-11.1 1.2-3.5 2.6-7.3 3-8.5 0.4-1.2 1.7-5 2.9-8.4 1.8-5.3 2.8-7.9 5.6-16 0.1-0.4 1.2-3.4 2.3-6.6 1.1-3.2 2.8-8.1 3.8-10.9 0.9-2.7 2.7-7.9 3.9-11.4 1.2-3.5 2.6-7.3 3-8.5 0.4-1.1 1.7-4.9 2.9-8.3 1.2-3.5 2.9-8.4 3.8-10.9 1.6-4.5 3.7-10.9 7.7-22.4 1.2-3.2 4.3-12.3 7.1-20.2 2.8-8 5.5-15.8 6-17.3 0.5-1.5 4.8-13.8 9.5-27.2 4.7-13.5 10.9-31.2 13.7-39.4l5.2-14.9v237.7l0.1 237.7h67.5 67.5v-400-400h-82.5l-82.6 0.1-1.8 5.4c-1 2.9-2.7 7.7-3.7 10.6-1 2.9-2.8 8.1-4 11.5-1.2 3.4-2.5 7.2-3 8.4-0.3 1.2-1.7 5-2.9 8.5-1.2 3.5-3 8.5-3.9 11.1-0.9 2.6-2.1 6.2-2.7 7.9-0.6 1.7-1.9 5.4-2.9 8.2-1 2.9-2.8 8-4 11.5-1.2 3.5-2.9 8.5-3.9 11.2-0.9 2.6-2.7 7.7-4 11.5-1.2 3.7-3 8.8-4 11.5-0.9 2.6-2.6 7.5-3.7 10.8-1.2 3.4-2.5 7.1-2.9 8.3-0.4 1.2-1.7 4.7-2.8 7.9-1.1 3.1-2.1 6-2.2 6.5-2.8 8-3.8 10.7-5.6 16-1.2 3.4-2.5 7.2-2.9 8.3-0.4 1.2-1.8 5-3 8.5-1.2 3.5-3 8.7-3.9 11.4-1 2.8-2.7 7.7-3.8 10.9-1.1 3.2-2.5 7.1-3 8.6-0.6 1.5-2.4 6.7-4 11.5-1.7 4.8-3.9 11-4.9 13.8-0.9 2.7-2.2 6.5-2.9 8.5-0.7 1.9-1.9 5.5-2.8 8.1-0.9 2.5-2.6 7.4-3.8 10.9-1.2 3.4-3 8.5-4 11.2-0.9 2.8-2.2 6.6-2.9 8.5-0.7 1.9-2 5.8-2.9 8.5-1 2.8-2.7 7.7-3.8 10.9-1.1 3.2-2.5 7-2.9 8.4-0.5 1.3-2.3 6.5-4 11.5-1.8 4.9-3.5 10-4 11.3-0.5 1.3-2.2 6.1-3.7 10.7-6.2 17.7-9 25.8-9.8 28.2-0.5 1.4-1.9 5.2-3 8.5-1.2 3.3-3 8.4-4 11.4-3 8.7-7.1 20.5-10.5 30.2-1.7 5.1-4 11.5-5 14.4-1 2.9-2.7 7.7-3.7 10.6-3.7 10.7-8 23-8.8 25.4-0.5 1.4-2 5.4-3.1 8.9-1.3 3.5-2.9 8.3-3.8 10.7-0.8 2.4-2.7 7.9-4.2 12.1-1.4 4.2-2.7 7.7-2.8 7.7-0.1 0-1.2-3-2.5-6.7-1.2-3.7-3.1-8.9-4-11.6-0.9-2.6-7.9-22.7-15.5-44.5-7.6-21.8-14.2-40.7-14.6-42-1-2.5-13.2-37.8-16.4-47-1.1-3.1-5-14.3-8.7-25-12.9-37.1-24.4-69.9-27.4-78.7-1.7-4.9-3.5-10-4-11.4-0.5-1.3-2.2-6.2-3.8-10.8-1.6-4.7-3.8-10.9-4.8-14-1.1-3.2-2.9-8.2-3.9-11.2-2.6-7.4-5.5-15.7-8-23-2-5.5-4.3-12.3-6.7-19-3.1-8.9-5.8-16.6-10.9-31.3-1.1-3.4-2.4-7.1-2.8-8.2-1.4-4-6.7-19.3-10.6-30.5-2.6-7.5-5.4-15.3-6.7-19.1-0.5-1.6-1.2-3.5-1.5-4.2-0.2-0.8-1.1-3.4-2-5.8-1.6-4.7-4-11.7-7.3-21.1-2-5.6-4.3-12.4-6.7-19-2-6.1-4.8-14.1-6.8-19.8-2.8-8-4.1-11.6-4.3-12.2-0.2-0.4-4.3-0.4-82.6-0.4h-82.5z"/><path fill-rule="evenodd" d="m5291.6 0h160.3l2.2 7.2c1.2 3.9 2.7 8.8 3.4 10.8 2.5 8.4 3.2 10.6 7.6 25 2.6 8.3 5 16.3 5.4 17.6 0.5 1.4 0.9 2.8 1 3.1 0.1 0.4 0.6 2 1.1 3.5 1 3.4 7.7 25.2 9.1 29.8 0.6 1.7 1.4 4.4 1.9 6 0.9 2.9 7.4 24.1 9.1 29.7 0.6 1.8 1.3 4.3 1.8 5.8 0.4 1.4 0.9 2.9 1 3.2 0.1 0.4 0.6 2 1.1 3.5 0.5 1.6 2.5 8.2 4.5 14.7 2 6.4 3.7 12.1 3.9 12.6 0.1 0.5 1.2 4 2.3 7.7 2.3 7.3 9.9 32 10.5 34.2 0.2 0.6 1.1 3.6 2 6.5 1.7 5.3 8.4 27 9 29.2 0.2 0.7 1.2 3.6 2 6.5 0.9 2.9 3.7 11.9 6.2 20 2.5 8.1 5 16.3 5.6 18.3 1.1 3.4 8 25.8 9.7 31.6 0.5 1.6 1.9 6 3 9.7 1.2 3.8 2.5 8.2 3 9.8 0.5 1.6 2.1 6.7 3.5 11.4 1.5 4.6 3.1 9.8 3.6 11.5 0.5 1.6 1.3 4.4 1.9 6.2 0.5 1.8 1.4 4.7 1.9 6.4 1.5 4.9 7.9 25.6 8.7 28.1 0.4 1.3 1.1 3.6 1.7 5.6 0.2 0.7 0.6 2.1 1 3.2 0.3 1.1 1.1 3.4 1.6 5.2 0.5 1.8 1.8 5.7 2.6 8.6 1 3 2.2 6.9 2.7 8.7 0.6 1.7 1.2 3.9 1.5 4.7 0.2 0.8 0.7 2.5 1.1 3.8 0.4 1.2 0.9 2.7 1.1 3.2 0.1 0.6 0.5 1.6 0.6 2.3 0.7 2.2 8.6 27.8 10.1 32.7 0.5 1.5 1.3 4 1.7 5.6 0.3 1.1 5.4 17.5 7.6 24.8 0.6 1.7 1.2 3.7 1.4 4.4 0.7 2.3 2.4 7.7 6 19.5 2 6.4 4 13.1 4.5 14.7 0.5 1.7 1.4 4.5 1.9 6.3 0.6 1.7 1.5 4.6 2 6.3 0.5 1.8 2.6 8.4 4.6 14.9 2 6.5 4 13.1 4.5 14.8 0.5 1.6 1.4 4.4 1.9 6.1 0.5 1.7 2.6 8.4 4.6 14.9 2 6.4 4 13.1 4.5 14.7 0.5 1.7 1.4 4.5 1.9 6.3 0.6 1.7 1.5 4.6 2 6.3 0.5 1.8 2.6 8.4 4.6 14.9 3.4 11.1 4.1 13.4 6.4 20.9 1.5 5 7.9 25.7 8.7 28.4 0.3 0.8 0.8 2.5 1.2 3.7 0.3 1.3 0.8 2.7 1 3.3 0.2 0.5 0.5 1.5 0.7 2.2 0.6 1.9 4.4 14.4 8.6 28.1 0.6 1.8 1.3 4.3 1.8 5.8 0.4 1.5 0.9 2.9 1 3.2 0.1 0.4 0.6 2 1.1 3.5 1 3.4 9.4 30.7 10.6 34.4 0.2 0.7 0.6 2 0.8 2.8l0.5 1.6h-141.2l-0.4-1.2c-0.2-0.7-4.9-15.8-10.4-33.8-5.5-18-10.3-33.3-10.5-34.1-0.3-0.9-3.2-10.4-6.5-21.2-3.3-10.7-6.3-20.2-6.5-21.1-0.3-0.8-1.8-5.9-3.5-11.4-1.7-5.4-3.2-10.3-3.4-11l-0.4-1.2h-286.9l-0.9 2.9c-1.7 5.4-1.9 6-2.6 8.5-0.4 1.3-2.9 9.5-5.6 18-2.6 8.5-5.1 16.6-5.5 18-0.4 1.3-0.8 2.7-1 3.1-0.1 0.4-0.5 1.7-0.9 3.1-0.4 1.4-2.7 8.8-5.1 16.4-2.3 7.6-4.6 15-5 16.4-0.4 1.3-0.8 2.7-1 3.1-0.1 0.4-0.5 1.7-0.9 3.1-0.4 1.4-2.7 8.8-5.1 16.4-2.3 7.6-4.6 15-5 16.4-0.4 1.3-0.8 2.7-1 3.1-0.1 0.4-0.5 1.8-1 3.2-0.4 1.5-0.8 2.8-0.8 3-0.1 0.2-14.5 0.3-70.8 0.3-57.4 0-70.6 0-70.5-0.3 0-0.2 1-3.3 2.1-7 1.1-3.6 2.3-7.4 2.6-8.5 0.4-1 0.9-2.8 1.3-4.1 0.4-1.2 0.9-2.7 1-3.2 0.2-0.6 0.6-2 1-3.3 0.4-1.2 0.8-2.7 1-3.2 0.2-0.6 0.7-2.2 1.1-3.5 1.5-5 6.1-19.8 6.6-21.7 0.4-1 0.9-2.8 1.3-4.1 0.4-1.2 0.9-2.7 1-3.2 0.2-0.6 0.6-2 1-3.3 0.4-1.2 0.8-2.7 1-3.2 0.2-0.6 0.7-2.2 1.1-3.5 0.4-1.4 2-6.4 3.4-11.2 1.5-4.7 3-9.7 3.4-11.1 0.5-1.4 1-2.9 1.1-3.5 0.2-0.5 0.6-1.9 1-3.1 0.4-1.2 2.8-9.1 5.4-17.6 2.6-8.5 5-16.2 5.2-17 0.3-0.9 0.8-2.7 1.3-4 0.4-1.4 2.9-9.5 5.5-18 2.6-8.5 5.1-16.7 5.5-18 0.5-1.4 0.9-2.8 1-3.2 0.1-0.3 0.5-1.7 1-3.1 0.4-1.4 2.7-8.7 5-16.4 2.3-7.6 4.6-15 5-16.3 0.5-1.4 0.9-2.8 1-3.2 0.1-0.3 0.5-1.7 1-3.1 0.4-1.4 2.7-8.7 5-16.4 2.3-7.6 4.6-15 5-16.3 0.5-1.4 0.9-2.8 1-3.2 0.1-0.3 0.5-1.7 1-3.1 0.4-1.4 2.7-8.7 5-16.4 2.3-7.6 4.6-15 5-16.3 0.5-1.4 0.9-2.8 1-3.2 0.1-0.3 0.5-1.7 1-3.1 0.4-1.4 2.2-7.3 4-13.1 1.8-5.9 3.5-11.6 3.9-12.8 0.4-1.1 0.8-2.5 1-3.1 0.2-0.5 0.6-2 1-3.2 0.3-1.3 0.8-2.7 1-3.3 0.1-0.5 0.6-2.1 1.1-3.5 1.2-4.3 7.2-23.7 7.7-25.2 0.3-0.9 0.8-2.6 1.2-3.8 0.3-1.2 0.8-2.7 1-3.2 0.1-0.6 0.6-2.1 1-3.3 0.3-1.2 0.8-2.7 1-3.2 0.1-0.6 0.6-2.2 1.1-3.5 0.4-1.4 2-6.6 3.5-11.5 1.5-5 3-10 3.4-11.2 0.4-1.1 0.8-2.5 1-3.1 0.2-0.5 0.6-2 1-3.2 0.3-1.3 0.8-2.7 1-3.3 0.1-0.5 0.6-2 1-3.2 0.3-1.3 0.9-3.1 1.3-4.2 0.8-2.7 5.7-18.6 6.6-21.6 0.4-1.4 0.8-2.8 0.9-3.1 0.2-0.4 0.6-1.8 1-3.1 0.4-1.4 2.9-9.5 5.5-18 6-19.3 5.6-18.1 6.5-21 0.9-2.9 7.8-25.5 9.3-30.2 0.5-1.7 1.3-4.3 1.7-5.7 0.5-1.5 0.9-2.9 1-3.3 0.2-0.3 0.6-1.7 1-3.1 0.4-1.4 2.7-8.7 5-16.4 2.4-7.6 4.7-15 5.1-16.3 0.4-1.4 0.8-2.8 0.9-3.2 0.2-0.3 0.6-1.7 1-3.1 0.4-1.4 2.7-8.7 5-16.4 2.4-7.6 4.7-15 5.1-16.3 0.4-1.4 0.8-2.8 0.9-3.2 0.2-0.3 0.6-1.7 1-3.1 0.4-1.4 2-6.5 3.5-11.5 1.6-4.9 3.1-9.9 3.5-11.1 0.3-1.2 0.8-2.6 0.9-3.1 0.2-0.6 0.7-2.1 1-3.3 0.4-1.2 0.9-2.7 1-3.2 0.2-0.6 0.6-2.1 1-3.3 0.4-1.2 1-3.1 1.3-4.1 0.7-2.2 6.8-22.1 7.8-25.3 0.3-1.1 0.8-2.5 0.9-3.1 0.2-0.5 0.6-2 1-3.2 0.4-1.3 0.8-2.7 1-3.3 0.2-0.5 0.7-2.1 1.1-3.5 0.4-1.4 2.3-7.3 4-13.1 1.8-5.9 3.6-11.6 4-12.8 0.3-1.1 0.8-2.5 0.9-3.1 0.2-0.5 0.7-2 1.1-3.2 0.3-1.3 0.9-3.1 1.2-4.2 1.1-3.4 7.9-25.5 8.6-28.1 0.5-1.4 0.9-2.8 1-3.1 0.1-0.4 0.5-1.8 1-3.1 0.4-1.4 2.7-8.8 5-16.4 2.3-7.6 4.6-15 5-16.4 0.5-1.4 0.9-2.8 1-3.1 0.1-0.4 0.6-1.8 1-3.3 0.5-1.4 1-3.2 1.2-3.9zm80.2 199c-0.1 0-0.7 1.8-1.4 4-0.7 2.3-1.5 4.9-1.8 5.9-0.3 0.9-0.9 2.7-1.2 4-1.1 3.6-1.7 5.4-2 6.5-0.2 0.5-0.6 1.9-1 3.1-0.3 1.2-1.9 6.2-3.4 11.1-1.5 5-3.1 10.1-3.5 11.5-0.4 1.4-0.9 3-1.1 3.5-0.2 0.6-0.7 2-1 3.3-0.4 1.2-0.8 2.7-1 3.2-0.2 0.6-0.7 2-1 3.3-0.4 1.2-0.9 2.9-1.2 3.7-0.5 1.6-6.5 21-7.7 25.3-0.4 1.3-0.9 2.9-1.1 3.5-0.2 0.5-0.7 2-1 3.2-0.4 1.2-0.8 2.7-1 3.3-0.2 0.5-0.7 1.9-1 3.1-0.3 1.2-2.1 6.9-3.9 12.7-1.8 5.9-3.6 11.8-4 13.2-0.4 1.3-0.9 2.7-1 3.1-0.1 0.3-0.5 1.7-1 3.1-0.4 1.4-2.6 8.8-5 16.4-2.3 7.6-4.6 15-5 16.4-0.4 1.3-0.9 2.7-1 3.1-0.1 0.3-0.5 1.7-1 3.1-0.4 1.4-2.6 8.8-5 16.4-2.3 7.6-4.6 15-5 16.4-0.4 1.3-0.9 2.7-1 3.1-0.1 0.3-0.5 1.7-1 3.1-0.4 1.4-2.6 8.8-5 16.4-2.3 7.6-4.6 15-5 16.4-0.4 1.3-0.9 2.7-1 3.1-0.1 0.3-0.5 1.7-1 3.1-0.4 1.4-2.9 9.5-5.5 18-2.6 8.5-5.1 16.6-5.5 18-0.4 1.4-1 3.2-1.3 4-0.2 0.8-2.3 7.8-4.7 15.4-2.3 7.6-4.5 14.8-4.9 16-0.7 2.4-1.7 5.6-2.2 7.2-0.2 0.6-0.4 1.2-0.4 1.4 0 0.4 12.6 0.4 101.9 0.4h101.8l-0.2-0.7c-0.3-0.9-7.4-23.9-8.9-28.9-0.7-2.2-10.4-33.7-10.9-35.3-0.5-1.9-10.4-33.9-11.7-38.1-2.3-7.7-3-10-7.4-24.1-2.5-8.3-5.1-16.4-5.6-18.2-2.3-7.5-3-9.7-6.4-20.8-2-6.5-3.8-12.4-4-13-0.2-0.7-0.8-2.7-1.4-4.4-1.8-5.9-8-26.1-8.3-27.4-0.2-0.7-0.6-1.7-0.7-2.2-0.2-0.6-0.7-2.1-1.1-3.3-0.4-1.2-0.9-2.9-1.1-3.7-0.5-1.6-0.9-2.8-5.1-16.7-3.3-10.5-4.5-14.6-5.2-16.6-0.2-0.8-0.6-2.1-0.8-2.7-1.2-4-9.7-31.5-10-32.8-0.2-0.7-0.6-1.7-0.7-2.2-0.2-0.6-0.7-2.1-1.1-3.3-0.4-1.2-0.9-2.9-1.1-3.7-0.5-1.6-0.9-2.8-5.1-16.7-1.5-4.7-3.2-10.1-3.7-11.8-0.5-1.8-1-3.5-1.1-3.9-0.1-0.3-0.2-0.5-0.3-0.5z"/><path  d="m5743 400v400h67.5 67.5l0.1-269.8v-269.8l22.8 39.9c12.5 21.9 30.6 53.5 40.1 70.3 9.6 16.8 32.5 56.9 50.9 89.3 18.5 32.3 39 68.3 45.7 80 6.6 11.6 29.4 51.6 50.6 88.9 21.3 37.2 45.3 79.3 53.5 93.7 8.2 14.4 21.5 37.7 29.5 51.8l14.7 25.7h71.1 71v-400-400h-67.5-67.5v269.9l-0.1 269.8-11.4-19.9c-6.2-11-21.3-37.3-33.4-58.5-12.1-21.3-43.3-76-69.3-121.7-26.1-45.6-55.7-97.6-65.9-115.5-19.7-34.4-34.6-60.6-59.3-103.8-29.2-51.4-56-98.3-62.2-109.2l-6.3-11-71-0.1h-71.1z"/></svg>