<svg version="1.2" xmlns="http://www.w3.org/2000/svg" viewBox="0 0 256 256" width="256" height="256"><style></style><path fill-rule="evenodd" d="m113.9-0.1q4.5 0 9 0 47.9 2.5 81.3 36.5 30.5 32.6 32.7 77.5 1.3 42.4-24 76.2 19.3 19.4 38.8 38.8 3.5 4 4.2 9.2 0 1.9 0 3.8-1.4 9.1-9.8 12.9-2.1 0.8-4.2 1.1-2 0-3.8 0-5.4-0.7-9.4-4.4-19.1-19.2-38.6-38.6-31.7 23.8-71.7 24-43.7-0.3-77-28.2-31.6-27.5-39.6-68.9-1.5-8.3-1.9-16.7 0-4.7 0-9.3 2.5-47.3 36-80.5 32.7-31.1 78-33.4zm4.4 32q30.9 0.3 55 19.6 27.7 23.3 31.3 59.6 2.6 37.2-21.7 65-22.5 24.7-56 28.4-35.5 3-63.3-19.1-25.1-21.1-30.6-53.6-4.8-34 14.2-62.4 21.4-30.1 57.9-36.4 6.6-0.9 13.2-1.1z"/></svg>