<svg version="1.2" xmlns="http://www.w3.org/2000/svg" viewBox="0 0 256 180" width="256" height="180">
	<title>vdtsdllhsdhntn</title>
	<style>
		.s0 { fill: #000000 } 
	</style>
	<path id="Layar" fill-rule="evenodd" class="s0" d="m256 90c0 0 0 41.9-5.3 62-3 11-11.7 19.4-22.7 22.3-19.9 5.4-100 5.4-100 5.4 0 0-80.1 0-100-5.4-11-2.9-19.7-11.3-22.7-22.3-5.3-20.1-5.3-62-5.3-62 0 0 0-41.8 5.3-61.9 3-11 11.7-19.8 22.7-22.7 19.9-5.4 100-5.4 100-5.4 0 0 80.1 0 100 5.4 11 2.9 19.7 11.7 22.7 22.7 5.3 20.1 5.3 61.9 5.3 61.9zm-87.3 0l-66.9-38v76z"/>
</svg>