<svg version="1.2" xmlns="http://www.w3.org/2000/svg" viewBox="0 0 256 304" width="256" height="304"><style></style><path  d="m125.6 0c-12.5 0.3-25.4 2.4-37 6.2-13.1 4.2-24.9 10.2-36 18.3-8.1 5.9-15.9 13.2-22.4 20.8-12.8 15.2-21.8 32.8-26.5 52-2 8.3-3.2 16.5-3.6 25.6-0.1 1.7-0.1 5.2-0.1 65.4v63.6l31 18.9c51.8 31.6 54.3 33.1 54.3 33.1 0 0.1 0-19.4 0-49.9v-50l-21.3-13-21.3-13v-25.1c0-13.7 0-25 0-25 0 0 19.2 11.7 42.6 26 23.5 14.4 42.7 26.1 42.7 26.1 0 0 19.2-11.7 42.7-26.1 23.4-14.3 42.6-26 42.6-26 0 0 0 11.3 0 25v25.1l-21.3 13-21.3 13v50c0 30.3 0 50 0 49.9 0 0 3.6-2.1 51-31l34.3-21v-63.6c0-59.9 0-63.7-0.1-65.4-0.2-4.6-0.5-8.5-1.1-12.8-3.2-22.8-12.5-44.3-26.9-62.2-4.5-5.6-9.5-10.9-14.9-15.6-15.6-14-34.5-23.8-54.7-28.7-8.2-2-16.8-3.2-25.2-3.5-1.6-0.1-5.9-0.1-7.5-0.1z"/></svg>