<svg version="1.2" xmlns="http://www.w3.org/2000/svg" viewBox="0 0 224 224" width="224" height="224"><style>.a{fill:#960426}.b{fill:#fefefe}.c{fill:#ad4052}.d{fill:#d89eaa}.e{fill:#d9a3ae}.f{fill:#ba5a6d}.g{fill:#d292a0}.h{fill:#d8a1ad}.i{fill:#d495a3}.j{fill:#cf8b9a}.k{fill:#d393a1}.l{fill:#e0b5be}.m{fill:#e3bbc4}.n{fill:#ad3f52}.o{fill:#c26d7f}.p{fill:#d79fac}.q{fill:#dfb1ba}.r{fill:#c26c7e}.s{fill:#d18e9d}.t{fill:#d08c9a}.u{fill:#e0b4be}.v{fill:#c97c8b}</style><path fill-rule="evenodd" class="a" d="m104.8-0.1q0 0 0.1 0 0.1 0.2 0.2 0 0.1 0 0.2 0 0 0.2 0.1 0 0.1 0 0.2 0 0 0.2 0 0 6.4 0 12.7 0 0 0.2 0.1 0 0.1 0 0.2 0 0 0.2 0 0 0.2 0 0.3 0 0.1 0.2 0.2 0 0 0 0 0 15.4 1.2 30 6.2 31.8 11.4 52.8 38.8 10.2 13.9 15.9 29.9 5 14.6 6.1 30 0 0 0 0.1-0.2 0.1 0 0.2 0 0.1 0 0.2-0.2 0 0 0.1 0 0.1 0 0.2-0.2 0 0 0 0 6.4 0 12.7-0.2 0 0 0.1 0 0.1 0 0.2-0.2 0 0 0 0 0.2 0 0.3-0.2 0.1 0 0.2 0 0 0 0-2.1 30.1-18.8 55.3-19.7 28.4-50.5 41.4-15.8 6.3-33 8-0.2-0.1-0.4-0.2-1 0.2-2.1 0.3 0 0 0 0-0.1-0.2-0.2 0-0.1 0-0.3 0 0-0.2 0 0-0.1 0-0.2 0-0.1-0.2-0.1 0-6.3 0-12.7 0 0-0.2 0 0-0.1 0-0.2 0-0.1-0.2-0.1 0-0.1 0-0.2 0-0.1-0.2-0.2 0-0.1 0-0.1 0-15.4-1.1-30-6.1-31.8-11.4-52.8-38.9-11.1-14.9-16.9-32.5 0.1-0.1 0.2-0.1-1.7-4.5-2.7-9.4-0.2-0.6-0.3-1.2-0.1-1-0.4-2.1 0 0 0-0.1-0.2-0.5-0.1-0.9-0.3-1.4-0.7-2.8 0.1-0.2 0.2-0.4-0.3-0.8-0.4-1.6 0-0.1 0-0.2-0.2-1.8-0.5-3.7 0-0.1 0-0.1-0.1-1.1-0.3-2.2 0.1-0.2 0.2-0.4-0.2-1-0.4-2.1 0 0 0 0 0.2-0.1 0-0.2 0-0.1 0-0.3 0.2 0 0 0 0-0.1 0-0.2 0.2-0.1 0-0.1 0-6.3 0-12.7 0.2 0 0 0 0-0.1 0-0.2 0.2-0.1 0-0.1 0-0.1 0-0.2 0.2-0.1 0-0.2 0-0.1 0-0.1 1.9-27.1 15.9-50.7 16.3-26.3 43.3-41.2 0.1 0.1 0.1 0.2 4.6-2.7 9.2-4.5 9-3.9 18.6-6 0.4-0.1 0.8-0.2 1.2-0.2 2.5-0.5 0 0 0.1 0 1-0.2 2-0.5 0.2 0.1 0.5 0 1.6-0.2 3.2-0.5 0.1 0 0.2 0 1.8-0.2 3.7-0.5 0.1 0 0.1 0 1.1-0.1 2.2-0.3 0.2 0.1 0.4 0.2 1-0.2 2.1-0.4z"/><path fill-rule="evenodd" class="b" d="m74.6 59.8q0.7 0.1 1.5 0.1 3.5 0.7 6.3 2.9 0.3 0.3 0.7 0.5 14.4 14.5 28.8 28.8 14.7-14.5 29.2-29.1 1-0.9 2.2-1.5 0.5-0.3 1.1-0.4 0.2 0 0.2-0.2 6.8-2.6 13 1 2.1 1.4 3.7 3.4-0.1 0.2 0.1 0.3 0.4 0.4 0.7 0.8-0.1 0.3 0.2 0.4 0.1 0.1 0.1 0.3 0 0.3 0.2 0.3 0.9 1.9 1.3 3.9 0 0.5 0.2 1 0.4 4.9-2.2 9.1-0.3 0.1-0.3 0.4-0.4 0.6-0.9 1.1-14.5 14.5-28.9 29 14.5 14.6 29 29.2 2.1 2.3 2.8 5.5 0 0.4 0.3 0.8 0.9 5.3-1.8 10-0.2 0-0.2 0.2-1.6 2.6-4.1 4.3-0.3-0.1-0.4 0.2-2.4 1.5-5.3 1.8-1.6 0.2-3.2 0.2-4.5-0.4-7.8-3.3-14.6-14.5-29.2-29-14.8 14.7-29.6 29.5-4.5 3.2-10 2.8-0.5-0.2-1-0.2-2.5-0.4-4.5-1.6-0.1-0.3-0.4-0.2-0.4-0.3-0.8-0.7-0.1-0.2-0.3-0.1-6.8-5.6-5.2-14.4 0.6-2.5 2-4.5 0.3-0.1 0.3-0.3 0.2-0.5 0.6-1 14.6-14.5 29.1-29.2-14.3-14.4-28.8-28.8-0.2-0.4-0.5-0.7-2.2-2.8-2.9-6.3 0-0.8 0-1.5 0-1.5 0-3 0.3-2.6 1.7-4.8 0.3-0.1 0.3-0.4 0.2-0.4 0.5-0.8 0.3-0.1 0.2-0.3 1.9-2.5 4.5-3.9 0.3 0.1 0.3-0.1 3.4-1.7 7.2-1.5z"/><path fill-rule="evenodd" class="c" d="m74.6 59.8q0.7-0.1 1.3 0 0.1 0 0.2 0.1-0.8 0-1.5-0.1z"/><path fill-rule="evenodd" class="d" d="m144.6 60.9q0 0.2-0.2 0.2 0-0.3 0.2-0.2z"/><path fill-rule="evenodd" class="e" d="m67.4 61.3q0 0.2-0.3 0.1 0.1-0.2 0.3-0.1z"/><path fill-rule="evenodd" class="f" d="m82.4 62.8q0.4 0.1 0.7 0.5-0.4-0.2-0.7-0.5z"/><path fill-rule="evenodd" class="g" d="m62.6 65.3q0.1 0.2-0.2 0.3 0-0.3 0.2-0.3z"/><path fill-rule="evenodd" class="h" d="m161.3 65.3q0.2 0 0.1 0.3-0.2-0.1-0.2-0.3z"/><path fill-rule="evenodd" class="i" d="m61.9 66.4q0 0.3-0.3 0.3 0-0.2 0.3-0.3z"/><path fill-rule="evenodd" class="j" d="m162.1 66.4q0.2 0.1 0.2 0.3-0.3 0-0.2-0.3z"/><path fill-rule="evenodd" class="k" d="m162.4 67.1q0.3 0.1 0.2 0.3-0.2 0-0.2-0.3z"/><path fill-rule="evenodd" class="l" d="m163.9 71.3q0.2 0.4 0.2 1-0.2-0.5-0.2-1z"/><path fill-rule="evenodd" class="m" d="m59.9 71.6q0 1.5 0 3-0.1 0-0.1 0-0.1-1.5 0.1-3z"/><path fill-rule="evenodd" class="n" d="m59.8 74.6q0 0 0.1 0 0 0.7 0 1.5-0.1-0.1-0.1-0.2-0.1-0.6 0-1.3z"/><path fill-rule="evenodd" class="o" d="m161.9 81.4q0 0.3-0.3 0.3 0-0.2 0.3-0.3z"/><path fill-rule="evenodd" class="f" d="m62.8 82.4q0.3 0.3 0.5 0.7-0.4-0.3-0.5-0.7z"/><path fill-rule="evenodd" class="p" d="m62.4 142.1q0 0.2-0.3 0.3 0-0.3 0.3-0.3z"/><path fill-rule="evenodd" class="q" d="m163.6 146.6q0.3 0.4 0.3 0.8-0.3-0.4-0.3-0.8z"/><path fill-rule="evenodd" class="r" d="m162.1 157.4q0.1 0.2-0.2 0.2 0-0.2 0.2-0.2z"/><path fill-rule="evenodd" class="h" d="m65.3 161.3q0.2-0.1 0.3 0.1-0.3 0.1-0.3-0.2z"/><path fill-rule="evenodd" class="s" d="m157.8 161.9q-0.1 0.2-0.4 0.2 0.1-0.3 0.3-0.2z"/><path fill-rule="evenodd" class="t" d="m66.4 162.1q0.3-0.1 0.3 0.2-0.2 0-0.3-0.2z"/><path fill-rule="evenodd" class="u" d="m71.3 163.9q0.5 0 1 0.2-0.6 0-1-0.2z"/><path fill-rule="evenodd" class="v" d="m152.1 163.9q-0.1 0.2-0.3 0.2-1.5 0.1-2.9 0 1.6 0 3.2-0.2z"/></svg>