<svg version="1.2" xmlns="http://www.w3.org/2000/svg" viewBox="0 0 224 256" width="224" height="256">
	<title>vdtsdllhsdhjgd</title>
	<style>
		.s0 { fill: #000000 } 
	</style>
	<path class="s0" d="m224 104.9q-8.2 0-16.3-1.3-8.1-1.2-15.9-3.7-7.8-2.5-15.1-6.2-7.3-3.7-14-8.4v89.2c0 33.9-21 64.2-52.7 76.1-31.8 11.8-67.5 2.8-89.7-22.8-22.2-25.5-26.3-62.2-10.2-91.9 16.1-29.8 49-46.5 82.6-41.8v44.9c-15.4-4.9-32.2 0.7-41.5 13.8-9.4 13.1-9.3 30.8 0.2 43.8 9.6 13 26.4 18.4 41.7 13.4 15.3-5.1 25.6-19.3 25.6-35.5v-174.5h44q0 1.4 0 2.8 0.1 1.4 0.2 2.8 0.1 1.3 0.3 2.7 0.2 1.4 0.4 2.8c0.8 4 2 8 3.5 11.9 1.6 3.8 3.5 7.5 5.8 10.9 2.4 3.4 5 6.6 8 9.5 2.9 2.9 6.2 5.5 9.6 7.8q3.7 2.4 7.8 4.3 4 1.9 8.2 3.1 4.3 1.3 8.7 2 4.4 0.6 8.8 0.6z"/>
</svg>
