<svg version="1.2" xmlns="http://www.w3.org/2000/svg" viewBox="0 0 256 256" width="256" height="256">
	<title>vdtsdllhsdhgrm</title>
	<style>
		.s0 { fill: #000000 } 
	</style>
	<path fill-rule="evenodd" class="s0" d="m254.8 180.7c-1 20.4-5.7 38.5-20.6 53.5-15 15-33.1 19.6-53.5 20.6-21.1 1.2-84.3 1.2-105.4 0-20.4-1-38.5-5.7-53.5-20.6-15-15-19.6-33.1-20.6-53.5-1.2-21.1-1.2-84.3 0-105.4 1-20.5 5.6-38.6 20.6-53.5 15-15 33.1-19.6 53.5-20.6 21.1-1.2 84.3-1.2 105.4 0 20.4 1 38.5 5.7 53.5 20.6 15 15 19.6 33.1 20.6 53.5 1.2 21.1 1.2 84.3 0 105.4zm-22.1-52.7c0-18.6 1.5-58.5-5.1-75.3-4.5-11.2-13.1-19.8-24.3-24.3-16.8-6.6-56.7-5.1-75.3-5.1-18.5 0-58.4-1.5-75.2 5.1-11.3 4.5-19.9 13.1-24.3 24.3-6.6 16.8-5.1 56.7-5.1 75.3 0 18.6-1.6 58.5 5.1 75.3 4.5 11.2 13.1 19.8 24.3 24.3 16.7 6.6 56.7 5.1 75.2 5.1 18.6 0 58.5 1.5 75.3-5.1 11.2-4.5 19.8-13.1 24.3-24.3 6.6-16.8 5.1-56.7 5.1-75.3zm-21.3-68.2c0 8.5-6.8 15.3-15.2 15.3-8.5 0-15.3-6.8-15.3-15.3 0-8.4 6.8-15.2 15.3-15.2 8.4 0 15.2 6.8 15.2 15.2zm-17.9 68.2c0 36.2-29.2 65.5-65.5 65.5-36.2 0-65.4-29.3-65.4-65.5 0-36.2 29.2-65.5 65.4-65.5 36.3 0 65.5 29.3 65.5 65.5zm-22.9 0c0-23.5-19.1-42.6-42.6-42.6-23.4 0-42.5 19.1-42.5 42.6 0 23.5 19.1 42.6 42.5 42.6 23.4 0 42.6-19.1 42.6-42.6z"/>
</svg>
