<svg version="1.2" xmlns="http://www.w3.org/2000/svg" viewBox="0 0 256 224" width="256" height="224"><style>.a{fill:#960426}.b{fill:#fefefe}.c{fill:#d393a0}.d{fill:#d393a1}.e{fill:#d598a5}.f{fill:#d599a6}.g{fill:#c77787}</style><path fill-rule="evenodd" class="a" d="m125.9-0.1q2.1 0 4 0 9.8 1.3 15.1 9.5 23 39.1 46 78.2 10.1 17.5 20.5 34.8 3.7 6.7 7.7 13.2 10.1 17.5 20.5 34.8 6.5 11.3 13.2 22.5 2.4 4 3 8.5 0 2.5 0 5-1.7 11-11.8 15.8-3.3 1.5-6.9 1.7-109.3 0-218.6 0-11.2-1.1-16.6-11-1.6-3.2-2.1-6.8 0-2.3 0-4.5 0.7-4.7 3.1-8.7 17.3-29.2 34.4-58.5 3.6-5.9 7-12 10.4-17.3 20.5-34.8 23-39.2 46.1-78.5 5.4-7.9 14.9-9.2z"/><path fill-rule="evenodd" class="b" d="m142.6 62.6q-0.2 1.8-0.2 3.8 0 0.7 0 1.5-0.2 1.8-0.1 3.7-0.3 9.6-0.9 19.1-0.2 1.1-0.1 2.2-1 14.9-2 29.8-0.2 1-0.2 1.9-0.8 11.5-1.5 22.8-9.7 0-19.2 0-0.8-11.3-1.5-22.8-0.1-0.9-0.3-1.9-0.9-14.9-2-29.8 0.1-1.1-0.2-2.2-0.5-9.5-0.8-19.1 0.1-1.9-0.2-3.7 0-0.8 0-1.5 0.1-2-0.1-3.8-0.1-1.4-0.2-2.7 14.8 0 29.7 0-0.1 1.3-0.2 2.7z"/><path fill-rule="evenodd" class="c" d="m113.3 62.6q0.2 1.8 0.1 3.8-0.2-1.9-0.1-3.8z"/><path fill-rule="evenodd" class="c" d="m142.6 62.6q0.1 1.9-0.2 3.8 0-2 0.2-3.8z"/><path fill-rule="evenodd" class="d" d="m113.4 67.9q0.3 1.8 0.2 3.7-0.2-1.8-0.2-3.7z"/><path fill-rule="evenodd" class="d" d="m142.4 67.9q0.1 1.9-0.2 3.7 0-1.9 0.2-3.7z"/><path fill-rule="evenodd" class="e" d="m114.4 90.8q0.3 1 0.2 2.1-0.2-1.1-0.2-2.1z"/><path fill-rule="evenodd" class="e" d="m141.4 90.8q0.1 1-0.2 2.1 0-1.1 0.2-2.1z"/><path fill-rule="evenodd" class="f" d="m116.6 122.8q0.2 0.9 0.3 1.8-0.3-0.9-0.3-1.8z"/><path fill-rule="evenodd" class="f" d="m139.3 122.8q0 0.9-0.2 1.8 0-0.9 0.1-1.8z"/><path fill-rule="evenodd" class="b" d="m145.4 173.9q-0.1 0.4 0.2 0.8 1.3 11.1-7.2 18-5.9 4-13 3.1-11.7-2-14.7-13.4-1.1-5.7 0.4-11.3 2.4-6.6 8.5-10.1 6.3-3 13-1.4 5.3 1.5 8.8 5.8 3.2 3.6 4 8.5z"/><path fill-rule="evenodd" class="g" d="m145.4 173.9q0.2 0.4 0.2 0.8-0.3-0.4-0.2-0.8z"/></svg>