<svg version="1.2" xmlns="http://www.w3.org/2000/svg" viewBox="0 0 224 224" width="224" height="224"><style>.a{fill:#499626}.b{fill:#fefefe}.c{fill:#cbe1c0}.d{fill:#bad6ac}.e{fill:#bad7ac}.f{fill:#a9cc98}.g{fill:#8fbe79}.h{fill:#91bf7b}.i{fill:#b8d6aa}.j{fill:#d6e7cd}.k{fill:#a1c88e}.l{fill:#87b96f}.m{fill:#cfe3c5}.n{fill:#93c07d}.o{fill:#b0d1a0}.p{fill:#cee3c5}.q{fill:#aacd99}.r{fill:#9cc588}.s{fill:#a8cd97}.t{fill:#81b669}.u{fill:#accf9b}.v{fill:#abce9a}.w{fill:#b9d6ab}.x{fill:#aed09e}.y{fill:#c3dcb8}</style><path fill-rule="evenodd" class="a" d="m107.4-0.1q4.5 0 9 0 46.4 2.6 78.1 36.2 27.4 30.3 29.4 71.3 0 4.5 0 9-2.4 45-34.3 76.4-26.6 25.3-63.4 30.3-4.9 0.6-9.8 0.8-4.5 0-9 0-44.9-2.4-76.3-34.3-26.3-27.7-30.6-66-0.3-3.5-0.6-7 0-4.6 0-9.2 2.5-45 34.5-76.4 30.7-28.8 73-31.1z"/><path fill-rule="evenodd" class="b" d="m157.1 71.1q0 0.2 0.3 0.2 0.1 0.1 0.4 0.1 0.1 0.3 0.3 0.4 0.5 0.2 0.8 0.6 0.2 0.2 0.5 0.2 0.6 0.6 1.2 1.3 0 0.2 0.3 0.4 2.4 2.8 3 6.6 0.1 1.1 0.2 2.2 0 3.7-1.7 7-0.3 0.1-0.3 0.3-0.3 0.9-1 1.5-0.3 0.2-0.3 0.5-29.2 29.2-58.4 58.4-4.7 4.4-11.3 3.8-0.5-0.2-1-0.2-0.8-0.1-1.5-0.3-0.2-0.2-0.5-0.2-1.3-0.3-2.5-1 0-0.3-0.2-0.3-0.1-0.2-0.3-0.2-0.4-0.1-0.7-0.3 0-0.3-0.3-0.2-10.5-10.4-20.9-20.8-0.6-0.8-1.1-1.7 0-0.2-0.2-0.3-1.3-1.8-1.8-4 0.1-0.5-0.2-1-0.1-1.8 0-3.7 0.1-0.5 0.2-1 0.3-2 1.2-3.8 0.2-0.1 0.1-0.3 0.2-0.4 0.5-0.7 0.2-0.1 0.2-0.3 0.3-0.8 1-1.4 0.4-0.2 0.5-0.6 1.8-2 4.2-3 0.2 0 0.3-0.2 1.7-0.8 3.5-1 1.7-0.2 3.3-0.2 1.2 0 2.2 0.4 0.3 0.1 0.7 0.1 2.9 1 5.3 2.9 4.8 4.8 9.6 9.6 24.2-24.2 48.4-48.4 1.5-1.2 3.3-1.9 0.2 0 0.2-0.2 0.8-0.3 1.5-0.5 0.4 0 0.7-0.3 0 0 0.1 0 0.5 0.1 1-0.2 4.8-0.7 9.2 1.7z"/><path fill-rule="evenodd" class="c" d="m147.9 69.4q-0.5 0.3-1 0.2 0.5-0.2 1-0.2z"/><path fill-rule="evenodd" class="d" d="m146.8 69.6q-0.3 0.3-0.7 0.3 0.3-0.2 0.6-0.3z"/><path fill-rule="evenodd" class="e" d="m144.6 70.4q0 0.2-0.2 0.2 0-0.3 0.2-0.2z"/><path fill-rule="evenodd" class="f" d="m157.1 71.1q0.2-0.1 0.3 0.2-0.3 0-0.3-0.2z"/><path fill-rule="evenodd" class="g" d="m157.8 71.4q0.2 0.1 0.3 0.3-0.2 0-0.4-0.3z"/><path fill-rule="evenodd" class="h" d="m158.9 72.4q0.3 0 0.5 0.2-0.3 0-0.5-0.2z"/><path fill-rule="evenodd" class="i" d="m160.6 73.9q0.2 0.1 0.3 0.3-0.3-0.1-0.3-0.3z"/><path fill-rule="evenodd" class="j" d="m163.9 80.9q0.3 1.1 0.2 2.2-0.1-1.1-0.2-2.2z"/><path fill-rule="evenodd" class="k" d="m162.4 90.1q0 0.3-0.3 0.3 0-0.2 0.3-0.3z"/><path fill-rule="evenodd" class="l" d="m161.1 91.9q0 0.4-0.3 0.5 0-0.3 0.3-0.5z"/><path fill-rule="evenodd" class="m" d="m74.9 107.9q-1.6 0-3.3 0.2 1-0.3 2-0.2 0.7 0 1.3 0z"/><path fill-rule="evenodd" class="n" d="m77.1 108.3q0.4-0.1 0.7 0.1-0.4 0-0.7-0.1z"/><path fill-rule="evenodd" class="o" d="m68.1 109.1q-0.1 0.2-0.3 0.2 0-0.3 0.3-0.2z"/><path fill-rule="evenodd" class="p" d="m63.6 112.3q-0.1 0.4-0.5 0.6 0.1-0.4 0.5-0.6z"/><path fill-rule="evenodd" class="q" d="m62.1 114.3q0 0.2-0.2 0.3-0.1-0.3 0.2-0.3z"/><path fill-rule="evenodd" class="r" d="m61.4 115.3q0.1 0.2-0.1 0.3-0.1-0.3 0.1-0.3z"/><path fill-rule="evenodd" class="s" d="m60.1 119.4q-0.1 0.5-0.2 1-0.1-0.6 0.2-1z"/><path fill-rule="evenodd" class="t" d="m59.9 124.1q0.3 0.5 0.2 1-0.2-0.5-0.2-1z"/><path fill-rule="evenodd" class="u" d="m61.9 129.1q0.2 0.1 0.2 0.3-0.3 0-0.2-0.3z"/><path fill-rule="evenodd" class="v" d="m84.1 151.9q0.3-0.1 0.3 0.2-0.2 0-0.3-0.2z"/><path fill-rule="evenodd" class="w" d="m85.1 152.4q0.2 0 0.3 0.2-0.3 0.1-0.3-0.2z"/><path fill-rule="evenodd" class="x" d="m85.4 152.6q0.2 0 0.2 0.3-0.2 0-0.2-0.3z"/><path fill-rule="evenodd" class="i" d="m88.1 153.9q0.3 0 0.5 0.2-0.3 0-0.5-0.2z"/><path fill-rule="evenodd" class="y" d="m90.1 154.4q0.5 0 1 0.2-0.5 0.1-1-0.2z"/></svg>